<?xml version="1.0" encoding="utf-8"?>
<!-- Generator: Adobe Illustrator 16.0.0, SVG Export Plug-In . SVG Version: 6.00 Build 0)  -->
<!DOCTYPE svg PUBLIC "-//W3C//DTD SVG 1.1//EN" "http://www.w3.org/Graphics/SVG/1.1/DTD/svg11.dtd">
<svg version="1.1" id="图层_1" xmlns="http://www.w3.org/2000/svg" xmlns:xlink="http://www.w3.org/1999/xlink" x="0px" y="0px"
	 width="81px" height="78px" viewBox="0 0 81 78" enable-background="new 0 0 81 78" xml:space="preserve">
<g>
	<path fill="#2b2b2b" d="M68.688,68.95H54.004c11.92-5.478,20.197-17.522,20.197-31.5c0-19.137-15.514-34.651-34.651-34.651
		c-19.137,0-34.651,15.514-34.651,34.651c0,18.208,14.044,33.135,31.89,34.542c0.117,0.068,0.253,0.107,0.398,0.107h31.5
		c0.435,0,0.787-0.353,0.787-0.787v-1.576C69.477,69.305,69.124,68.95,68.688,68.95L68.688,68.95z M55.301,31.149
		c3.479,0,6.301,2.821,6.301,6.301c0,3.479-2.822,6.3-6.301,6.3c-3.48,0-6.3-2.82-6.3-6.3C49,33.971,51.82,31.149,55.301,31.149
		L55.301,31.149z M39.55,15.399c3.479,0,6.3,2.82,6.3,6.3c0,3.479-2.82,6.301-6.3,6.301c-3.479,0-6.3-2.822-6.3-6.301
		C33.25,18.22,36.071,15.399,39.55,15.399L39.55,15.399z M23.8,43.75c-3.479,0-6.3-2.82-6.3-6.3c0-3.479,2.821-6.301,6.3-6.301
		c3.48,0,6.3,2.821,6.3,6.301C30.1,40.93,27.28,43.75,23.8,43.75L23.8,43.75z M33.25,53.2c0-3.479,2.821-6.302,6.3-6.302
		c3.479,0,6.3,2.821,6.3,6.302c0,3.479-2.82,6.3-6.3,6.3C36.071,59.5,33.25,56.68,33.25,53.2L33.25,53.2z"/>
</g>
</svg>
