<?xml version="1.0" encoding="utf-8"?>
<!-- Generator: Adobe Illustrator 16.0.0, SVG Export Plug-In . SVG Version: 6.00 Build 0)  -->
<!DOCTYPE svg PUBLIC "-//W3C//DTD SVG 1.1//EN" "http://www.w3.org/Graphics/SVG/1.1/DTD/svg11.dtd">
<svg version="1.1" id="图层_3" xmlns="http://www.w3.org/2000/svg" xmlns:xlink="http://www.w3.org/1999/xlink" x="0px" y="0px"
	 width="81px" height="78px" viewBox="0 0 81 78" enable-background="new 0 0 81 78" xml:space="preserve">
<g>
	<path fill="#F5F5F5" d="M29.042,46.41c-0.662-1.433-1.572-2.479-2.729-3.138c-0.431-0.247-0.646-0.428-0.646-0.543
		c0,0.05,0.306-0.264,0.918-0.938c0.694-0.774,1.257-1.548,1.688-2.322c0.596-1.087,0.894-2.116,0.894-3.088
		c0-3.722-1.282-6.365-3.847-7.929c-1.936-1.169-4.938-1.828-9.009-1.977c-0.893-0.033-3.979-0.049-9.256-0.049
		c-3.293,0-5.208,0.033-5.746,0.099S0.51,26.78,0.527,27.093l0.025,0.346c0.132,2.701,0.224,4.727,0.273,6.077
		c0.199,5.27,0.298,8.859,0.298,10.77c0,1.779-0.104,4.455-0.31,8.028c-0.207,3.574-0.311,6.242-0.311,8.004
		c0,0.412,0.24,0.667,0.72,0.766c1.158,0.247,4.79,0.37,10.895,0.37c0.38,0,0.968,0,1.762,0c0.777,0.017,1.373,0.025,1.787,0.025
		c5.443,0,9.249-1.145,11.417-3.434c1.902-1.992,2.854-4.504,2.854-7.534C29.936,49.062,29.638,47.694,29.042,46.41L29.042,46.41z
		 M13.928,39.642c-1.919,0-2.97-0.074-3.152-0.222c-0.281-0.198-0.422-1.12-0.422-2.767c0-0.313,0.029-0.787,0.087-1.42
		c0.058-0.634,0.087-1.107,0.087-1.42c0-0.263,0.894-0.396,2.68-0.396c1.82,0,3.127,0.124,3.921,0.371
		c1.422,0.461,2.134,1.4,2.134,2.816C19.264,38.629,17.485,39.642,13.928,39.642L13.928,39.642z M18.197,53.277
		c-0.728,0.28-1.985,0.42-3.772,0.42c-2.168,0-3.359-0.103-3.574-0.309c-0.215-0.206-0.323-1.28-0.323-3.224
		c0-1.861,0.091-2.87,0.273-3.026s1.34-0.234,3.475-0.234c1.787,0,3.077,0.164,3.872,0.494c1.241,0.527,1.861,1.531,1.861,3.014
		C20.008,51.845,19.404,52.8,18.197,53.277L18.197,53.277z"/>
	<path fill="#F5F5F5" d="M60.527,46.41c-0.661-1.433-1.571-2.479-2.729-3.138c-0.431-0.247-0.646-0.428-0.646-0.543
		c0,0.05,0.306-0.264,0.918-0.938c0.695-0.774,1.258-1.548,1.688-2.322c0.595-1.087,0.893-2.116,0.893-3.088
		c0-3.722-1.282-6.365-3.847-7.929c-1.936-1.169-4.938-1.828-9.008-1.977c-0.894-0.033-3.979-0.049-9.258-0.049
		c-3.292,0-5.207,0.033-5.744,0.099c-0.539,0.066-0.799,0.255-0.782,0.568l0.024,0.346c0.133,2.701,0.224,4.727,0.273,6.077
		c0.199,5.27,0.298,8.859,0.298,10.77c0,1.779-0.104,4.455-0.311,8.028c-0.207,3.574-0.31,6.242-0.31,8.004
		c0,0.412,0.239,0.667,0.719,0.766c1.158,0.247,4.79,0.37,10.896,0.37c0.38,0,0.968,0,1.762,0c0.777,0.017,1.373,0.025,1.787,0.025
		c5.443,0,9.248-1.145,11.416-3.434c1.902-1.992,2.854-4.504,2.854-7.534C61.421,49.062,61.123,47.694,60.527,46.41L60.527,46.41z
		 M45.414,39.642c-1.92,0-2.97-0.074-3.152-0.222c-0.281-0.198-0.421-1.12-0.421-2.767c0-0.313,0.028-0.787,0.086-1.42
		c0.059-0.634,0.087-1.107,0.087-1.42c0-0.263,0.894-0.396,2.681-0.396c1.819,0,3.127,0.124,3.921,0.371
		c1.423,0.461,2.135,1.4,2.135,2.816C50.75,38.629,48.971,39.642,45.414,39.642L45.414,39.642z M49.683,53.277
		c-0.729,0.28-1.985,0.42-3.772,0.42c-2.168,0-3.358-0.103-3.573-0.309c-0.216-0.206-0.323-1.28-0.323-3.224
		c0-1.861,0.091-2.87,0.273-3.026c0.182-0.156,1.34-0.234,3.475-0.234c1.786,0,3.077,0.164,3.871,0.494
		c1.241,0.527,1.861,1.531,1.861,3.014C51.494,51.845,50.89,52.8,49.683,53.277L49.683,53.277z"/>
	<path fill="#F5F5F5" d="M78.736,44.409c-0.1-0.132-1.2-1.515-3.301-4.15c-1.191-1.465-1.787-2.7-1.787-3.705
		c0-1.12,0.538-1.992,1.613-2.618c0.894-0.543,1.936-0.815,3.127-0.815c0.165,0,0.405,0.025,0.72,0.074s0.537,0.074,0.67,0.074
		c0.298,0,0.447-0.14,0.447-0.42c0-0.066-0.025-0.148-0.075-0.247c-1.571-3.146-2.572-5.319-3.003-6.521
		c-0.148-0.395-0.347-0.593-0.595-0.593c-0.1,0-0.24,0.008-0.423,0.025c-3.325,0.494-6.129,1.564-8.412,3.211
		c-2.797,1.993-4.194,4.496-4.194,7.51c0,2.075,0.57,3.968,1.712,5.681c0.165,0.247,1.225,1.491,3.177,3.73
		c1.125,1.317,1.688,2.511,1.688,3.581c0,1.681-0.86,2.948-2.581,3.805c-0.777,0.379-2.366,0.84-4.765,1.383
		c-0.248,0.05-0.372,0.165-0.372,0.347c0,0.51,0.653,1.923,1.96,4.236c1.308,2.313,2.151,3.471,2.532,3.471
		c0.082,0,0.189-0.009,0.322-0.025c3.557-0.576,6.576-1.918,9.059-4.026c2.829-2.388,4.243-5.253,4.243-8.596
		C80.498,48.024,79.911,46.221,78.736,44.409L78.736,44.409z"/>
</g>
</svg>
