<?xml version="1.0" encoding="utf-8"?>
<!-- Generator: Adobe Illustrator 16.0.0, SVG Export Plug-In . SVG Version: 6.00 Build 0)  -->
<!DOCTYPE svg PUBLIC "-//W3C//DTD SVG 1.1//EN" "http://www.w3.org/Graphics/SVG/1.1/DTD/svg11.dtd">
<svg version="1.1" id="图层_3" xmlns="http://www.w3.org/2000/svg" xmlns:xlink="http://www.w3.org/1999/xlink" x="0px" y="0px"
	 width="81px" height="78px" viewBox="0 0 81 78" enable-background="new 0 0 81 78" xml:space="preserve">
<g>
	<path fill-rule="evenodd" clip-rule="evenodd" fill="#2b2b2b" d="M75.717,29.187V6.445c0-2.021-1.764-3.787-3.783-3.787H3.782
		C1.764,2.658,0,4.436,0,6.445v49.269c0,2.021,1.764,3.787,3.782,3.787h26.495v7.584h-7.574c-3.782,0-3.782,3.786-3.782,3.786
		h34.071c0,3.787,3.791,3.787,3.791,3.787h18.934c0,0,3.781,0,3.781-3.787V32.973C79.498,29.187,75.717,29.187,75.717,29.187
		L75.717,29.187L75.717,29.187z M3.782,51.929V6.445h68.142v22.741H56.783c0,0-3.781,0-3.781,3.786v18.956H3.782L3.782,51.929
		L3.782,51.929z M45.428,67.085v-7.584h7.563v7.584H45.428L45.428,67.085L45.428,67.085z M66.244,70.871
		c-1.043,0-1.896-0.844-1.896-1.898c0-1.044,0.844-1.899,1.896-1.899c1.043,0,1.896,0.844,1.896,1.899
		C68.141,70.027,67.287,70.871,66.244,70.871L66.244,70.871L66.244,70.871z M75.717,63.299H56.783V32.973h18.934V63.299
		L75.717,63.299L75.717,63.299z M75.717,63.299L75.717,63.299"/>
</g>
</svg>
