<?xml version="1.0" encoding="utf-8"?>
<!-- Generator: Adobe Illustrator 16.0.0, SVG Export Plug-In . SVG Version: 6.00 Build 0)  -->
<!DOCTYPE svg PUBLIC "-//W3C//DTD SVG 1.1//EN" "http://www.w3.org/Graphics/SVG/1.1/DTD/svg11.dtd">
<svg version="1.1" id="图层_3" xmlns="http://www.w3.org/2000/svg" xmlns:xlink="http://www.w3.org/1999/xlink" x="0px" y="0px"
	 width="81px" height="78px" viewBox="0 0 81 78" enable-background="new 0 0 81 78" xml:space="preserve">
<g>
	<path fill-rule="evenodd" clip-rule="evenodd" fill="#F5F5F5" d="M30.746,0.283l13.222,18.693L23.84,18.92L15.255,7.598
		c-0.352-0.464,0.082-1.112,0.645-0.962l9.821,1.906c0.335,0.089,0.677-0.118,0.754-0.455L29.65,0.5
		C29.769-0.016,30.441-0.149,30.746,0.283L30.746,0.283z"/>
	<path fill-rule="evenodd" clip-rule="evenodd" fill="#F5F5F5" d="M55.183,0.176L42.784,10.837l6.022,8.157l8.592-0.033l7.174-6.094
		c0.382-0.415,0.156-1.089-0.399-1.189l-8.816-1.095c-0.283-0.036-0.48-0.298-0.437-0.581l1.428-9.13
		C56.493,0.2,55.703-0.272,55.183,0.176L55.183,0.176z"/>
	<path fill-rule="evenodd" clip-rule="evenodd" fill="#F5F5F5" d="M38.041,40.645H7.176V72.93c0,2.795,2.264,5.061,5.055,5.061
		h25.81V40.645L38.041,40.645z"/>
	<path fill-rule="evenodd" clip-rule="evenodd" fill="#F5F5F5" d="M43.097,40.645V77.99h25.721c2.792,0,5.056-2.266,5.056-5.061
		V40.645H43.097L43.097,40.645z"/>
	<path fill-rule="evenodd" clip-rule="evenodd" fill="#F5F5F5" d="M74.432,23.603h-31.31v12.492h31.31
		c2.78,0,5.056-2.277,5.056-5.059v-2.375C79.487,25.879,77.212,23.603,74.432,23.603L74.432,23.603z"/>
	<path fill-rule="evenodd" clip-rule="evenodd" fill="#F5F5F5" d="M38.066,23.603H6.567c-2.78,0-5.055,2.276-5.055,5.058v2.375
		c0,2.781,2.275,5.059,5.055,5.059h31.499V23.603L38.066,23.603z"/>
</g>
</svg>
