<?xml version="1.0" encoding="utf-8"?>
<!-- Generator: Adobe Illustrator 16.0.0, SVG Export Plug-In . SVG Version: 6.00 Build 0)  -->
<!DOCTYPE svg PUBLIC "-//W3C//DTD SVG 1.1//EN" "http://www.w3.org/Graphics/SVG/1.1/DTD/svg11.dtd">
<svg version="1.1" id="图层_3" xmlns="http://www.w3.org/2000/svg" xmlns:xlink="http://www.w3.org/1999/xlink" x="0px" y="0px"
	 width="81px" height="78px" viewBox="0 0 81 78" enable-background="new 0 0 81 78" xml:space="preserve">
<g>
	<path fill-rule="evenodd" clip-rule="evenodd" fill="#F5F5F5" d="M30.878,76.502"/>
	<path fill-rule="evenodd" clip-rule="evenodd" fill="#F5F5F5" d="M80.436,40.525L41.881,2.062c-0.754-0.751-1.974-0.751-2.726,0
		L10.246,30.902c-0.005,0.004-0.01,0.009-0.014,0.014L0.6,40.525c-0.753,0.751-0.753,1.968,0,2.72c0.753,0.751,1.973,0.751,2.726,0
		l6.348-6.333V68.81c0,4.242,3.458,7.692,7.711,7.692h13.494c1.065,0,1.929-0.859,1.929-1.923V57.271h15.421v14.597v4.635h1.928
		h6.588h6.906c4.252,0,7.711-3.45,7.711-7.692V47.654V36.912l6.348,6.333c0.377,0.375,0.869,0.563,1.363,0.563
		s0.986-0.188,1.363-0.563C81.188,42.493,81.188,41.276,80.436,40.525L80.436,40.525z"/>
</g>
</svg>
