<?xml version="1.0" encoding="utf-8"?>
<!-- Generator: Adobe Illustrator 16.0.0, SVG Export Plug-In . SVG Version: 6.00 Build 0)  -->
<!DOCTYPE svg PUBLIC "-//W3C//DTD SVG 1.1//EN" "http://www.w3.org/Graphics/SVG/1.1/DTD/svg11.dtd">
<svg version="1.1" id="图层_1" xmlns="http://www.w3.org/2000/svg" xmlns:xlink="http://www.w3.org/1999/xlink" x="0px" y="0px"
	 width="114px" height="40px" viewBox="0 0 114 40" enable-background="new 0 0 114 40" xml:space="preserve">
<path fill="#F2F2F2" d="M21.688,28.175h3.622v-0.998h1.417v0.998h3.158v-0.998h1.417v0.998h3.522v1.207h-3.522v0.715h-1.417v-0.715
	h-3.158v0.701H25.31v-0.701h-3.622V28.175z M21.688,38.771h1.375v-3.41h10.428v3.41h1.348v1.221H21.688V38.771z M22.727,30.757
	h1.348v3.902h-1.348V30.757z M24.551,38.771h1.614v-2.244h-1.614V38.771z M25.59,30.407h1.403v4.363H25.59V30.407z M27.259,33.985
	c0.941-1.137,1.545-2.246,1.966-3.65l1.417,0.213l-0.294,0.799h4.252v1.193h-4.772c-0.392,0.787-0.841,1.502-1.402,2.23
	C28.088,34.519,27.667,34.237,27.259,33.985 M27.471,38.771h1.614v-2.244h-1.614V38.771z M30.152,33.493l0.828-0.828
	c0.843,0.533,1.516,0.984,2.331,1.559l-0.886,0.928C31.681,34.575,30.994,34.069,30.152,33.493 M30.376,38.771h1.629v-2.244h-1.629
	V38.771z"/>
<path fill="#F2F2F2" d="M40.681,31.683l1.164-0.701c0.618,0.658,1.221,1.361,1.84,2.105l-1.25,0.799
	C41.888,33.185,41.34,32.497,40.681,31.683 M43.445,35.458l-1.067,4.885l-1.445-0.393c0.421-1.516,0.856-3.355,1.179-5.068
	c0.393,0.143,0.871,0.297,1.235,0.395c0-0.014-0.014-0.029-0.014-0.041c1.278-0.703,2.232-1.586,2.99-2.738h-2.498v-1.18h2.288
	v-1.516h-1.726v-1.15h1.726V27.22h1.347v1.432h2.471V27.22h1.348v1.432h1.979v1.15h-1.979v1.516h2.498v1.18h-2.679
	c0.729,1.109,1.6,1.84,2.905,2.443l-0.673,1.262c-0.829-0.49-1.475-0.982-2.036-1.529v2.75h-4.758v0.605
	c0,0.631,0.253,0.883,0.87,0.883h3.425c0.632,0,0.968-0.238,1.095-0.771c0.084-0.352,0.153-0.771,0.224-1.305
	c0.408,0.141,0.829,0.279,1.235,0.393c-0.113,0.674-0.211,1.137-0.323,1.57c-0.238,0.857-0.814,1.277-2.008,1.277h-4.167
	c-1.068,0-1.671-0.561-1.671-1.684v-2.863c-0.393,0.338-0.828,0.674-1.291,0.998C43.782,36.175,43.629,35.823,43.445,35.458
	 M41.06,28.062l1.234-0.701l1.783,2.105l-1.291,0.799C42.238,29.536,41.635,28.792,41.06,28.062 M46.533,36.356H50v-1.346h-3.467
	V36.356z M46.757,33.929h3.861c-0.351-0.422-0.646-0.898-0.94-1.432h-1.91C47.459,33.017,47.123,33.479,46.757,33.929
	 M47.459,31.317h2.471v-1.516h-2.471V31.317z"/>
<path fill="#F2F2F2" d="M60.374,28.019h12.114v1.391h-8.52l-0.254,1.77h7.369l-0.436,7.086h2.273v1.391H59.955v-1.391h9.136
	l0.112-1.908h-7.748l0.941-6.947h-2.022V28.019z M63.52,32.513l-0.353,2.496h6.12l0.168-2.496H63.52z"/>
<path fill="#F2F2F2" d="M78.918,31.837h6.358v1.305h-2.793c-0.618,1.588-1.193,2.977-1.782,4.211
	c0.814-0.041,1.865-0.111,2.85-0.195c-0.338-0.857-0.646-1.629-0.971-2.4l1.194-0.42c0.505,1.121,1.081,2.525,1.601,3.818
	c1.023-1.531,1.332-3.131,1.431-6.375c0-0.182,0.015-0.363,0.015-0.545h-1.517v-1.334h1.559c0.028-0.842,0.028-1.715,0.043-2.695
	h1.402c-0.013,0.842-0.028,1.768-0.056,2.695h3.48c-0.041,3.018-0.113,6.217-0.183,8.098c-0.069,1.389-0.646,2.021-1.852,2.076
	c-0.492,0.029-1.264,0.043-1.896,0.043c-0.084-0.449-0.225-1.053-0.352-1.514c0.549,0.027,1.067,0.055,1.629,0.055
	c0.688,0,0.982-0.324,1.024-1.066c0.083-1.588,0.167-4.184,0.167-6.357h-2.063c0,0.209-0.014,0.404-0.014,0.602
	c-0.154,4.309-0.645,6.037-2.695,8.646c-0.42-0.295-0.814-0.547-1.305-0.855c0.322-0.365,0.617-0.701,0.87-1.039l-0.827,0.365
	c-0.029-0.084-0.127-0.35-0.211-0.547c-1.291,0.098-2.315,0.197-3.34,0.293c-0.478,0.057-0.83,0.141-1.25,0.268l-0.549-1.277
	c0.269-0.223,0.507-0.561,0.676-0.926c0.477-1.025,1.01-2.414,1.375-3.623h-2.021V31.837z M79.535,28.175h5.264v1.318h-5.264V28.175
	z"/>
<path fill="#F2F2F2" d="M112.539,25.638L112.539,25.638c-16.878-2.977-34.604-4.503-55.799-4.503c-0.01,0-0.02,0-0.028,0
	c-0.011,0-0.021,0-0.031,0c-21.195,0-38.92,1.526-55.8,4.503h0.001c-0.134,0.025-0.234,0.143-0.234,0.283
	c0,0.158,0.129,0.287,0.288,0.287c0.013,0,0.027-0.002,0.041-0.002c18.332-1.953,36.271-2.834,55.705-2.842h0.031h0.028
	c19.434,0.008,37.374,0.889,55.706,2.842c0.014,0,0.027,0.002,0.041,0.002c0.158,0,0.287-0.129,0.287-0.287
	C112.773,25.78,112.673,25.663,112.539,25.638"/>
<path fill="#F2F2F2" d="M72.23,0.651c-4.656,0-8.43,3.773-8.43,8.428c0,4.656,3.773,8.429,8.43,8.429
	c4.654,0,8.428-3.773,8.428-8.429C80.658,4.424,76.885,0.651,72.23,0.651 M72.23,13.89c-2.658,0-4.811-2.153-4.811-4.811
	c0-2.656,2.152-4.81,4.811-4.81c2.656,0,4.81,2.153,4.81,4.81C77.04,11.736,74.887,13.89,72.23,13.89"/>
<path fill="#F2F2F2" d="M49.249,0.816h-6.036c-0.005,0-0.116,0.001-0.164,0.001c-1.513,0.017-3.039,0.448-4.402,1.333
	c-3.827,2.486-4.914,7.604-2.429,11.43c1.592,2.452,4.265,3.78,6.986,3.763c0.003,0,6.045,0.001,6.045,0.001v-3.004h-5.431h-0.009
	v-0.003c-2.21-0.077-4.075-1.514-4.781-3.501h10.221V7.323H39.019c0.429-1.221,1.292-2.236,2.407-2.859
	c0.358-0.201,0.744-0.361,1.148-0.474c0.395-0.11,0.809-0.176,1.235-0.191c0,0,0.187-0.003,0.188-0.003h5.251V0.816z"/>
<rect x="13.387" y="0.816" fill="#F2F2F2" width="3.511" height="16.527"/>
<polygon fill="#F2F2F2" points="22.029,5.843 22.029,17.343 18.675,17.343 18.675,0.816 23.179,0.816 29.754,13.129 29.754,0.816
	33.106,0.816 33.106,17.343 28.157,17.343 "/>
<path fill-rule="evenodd" clip-rule="evenodd" fill="#F2F2F2" d="M0.004,0.817h3.56v10.702c0,1.257,0.686,2.064,1.598,2.426
	c0.343,0.135,0.683,0.174,1.136,0.172c1.629-0.001,5.314,0.001,5.313,0.001v3.222H6.336c-0.572,0-1.138,0.017-1.676-0.047
	c-1.927-0.228-3.366-1.388-4.099-2.907c-0.431-0.893-0.542-2.108-0.556-3.414C-0.006,9.958,0.004,0.817,0.004,0.817"/>
<rect x="51.026" y="0.816" fill="#F2F2F2" width="3.511" height="16.527"/>
<polygon fill="#F2F2F2" points="54.865,8.976 61.196,0.816 65.821,0.816 58.988,8.976 65.494,17.343 60.857,17.343 "/>
<polygon fill="#F2F2F2" points="85.789,5.843 85.789,17.343 82.436,17.343 82.436,0.816 86.939,0.816 93.514,13.129 93.514,0.816
	96.867,0.816 96.867,17.343 91.917,17.343 "/>
<path fill="#F2F2F2" d="M107.68,3.792c0.068,0,0.878,0.004,0.878,0.004h4.863V0.815h-6.017c-0.028,0-0.572,0.003-0.799,0.011
	c-1.449,0.047-2.904,0.478-4.21,1.326c-3.815,2.477-4.9,7.579-2.423,11.395c1.391,2.139,3.605,3.455,5.955,3.729
	c0.455,0.091,2.279,0.064,2.85,0.064h4.644V7.322h-6.986v3.51h3.476v3.507h-1.353h-0.688c0,0-0.209,0.005-0.379,0
	c-0.25-0.009-0.633-0.067-0.936-0.132c-1.316-0.286-2.449-1.064-3.195-2.134c-0.598-0.854-0.947-1.892-0.947-3.014
	c0-1.121,0.35-2.16,0.947-3.013C104.313,4.684,105.892,3.792,107.68,3.792"/>
</svg>
