<?xml version="1.0" encoding="utf-8"?>
<!-- Generator: Adobe Illustrator 16.0.0, SVG Export Plug-In . SVG Version: 6.00 Build 0)  -->
<!DOCTYPE svg PUBLIC "-//W3C//DTD SVG 1.1//EN" "http://www.w3.org/Graphics/SVG/1.1/DTD/svg11.dtd">
<svg version="1.1" xmlns="http://www.w3.org/2000/svg" xmlns:xlink="http://www.w3.org/1999/xlink" x="0px" y="0px" width="259px"
	 height="40px" viewBox="0 0 259 40" enable-background="new 0 0 259 40" xml:space="preserve">
<g id="图层_1">
	<path fill="#5E5C5C" d="M22.363,27.607h3.622v-0.998h1.417v0.998h3.158v-0.998h1.417v0.998H35.5v1.207h-3.522v0.715h-1.417v-0.715
		h-3.158v0.701h-1.417v-0.701h-3.622V27.607z M22.363,38.203h1.375v-3.41h10.428v3.41h1.348v1.221H22.363V38.203z M23.402,30.189
		h1.348v3.902h-1.348V30.189z M25.226,38.203h1.614v-2.244h-1.614V38.203z M26.266,29.84h1.403v4.363h-1.403V29.84z M27.935,33.418
		c0.941-1.137,1.545-2.246,1.966-3.65l1.417,0.213l-0.294,0.799h4.252v1.193h-4.772c-0.392,0.787-0.841,1.502-1.402,2.23
		C28.763,33.951,28.342,33.67,27.935,33.418 M28.146,38.203h1.614v-2.244h-1.614V38.203z M30.827,32.926l0.828-0.828
		c0.843,0.533,1.516,0.984,2.331,1.559L33.1,34.584C32.356,34.008,31.669,33.502,30.827,32.926 M31.051,38.203h1.629v-2.244h-1.629
		V38.203z"/>
	<path fill="#5E5C5C" d="M41.356,31.115l1.164-0.701c0.618,0.658,1.221,1.361,1.84,2.105l-1.25,0.799
		C42.563,32.617,42.015,31.93,41.356,31.115 M44.121,34.891l-1.067,4.885l-1.445-0.393c0.421-1.516,0.856-3.355,1.179-5.068
		c0.393,0.143,0.871,0.297,1.235,0.395c0-0.014-0.014-0.029-0.014-0.041c1.278-0.703,2.232-1.586,2.99-2.738H44.5v-1.18h2.288
		v-1.516h-1.726v-1.15h1.726v-1.432h1.347v1.432h2.471v-1.432h1.348v1.432h1.979v1.15h-1.979v1.516h2.498v1.18h-2.679
		c0.729,1.109,1.6,1.84,2.905,2.443l-0.673,1.262c-0.829-0.49-1.475-0.982-2.036-1.529v2.75h-4.758v0.605
		c0,0.631,0.253,0.883,0.87,0.883h3.425c0.632,0,0.968-0.238,1.095-0.771c0.084-0.352,0.153-0.771,0.224-1.305
		c0.408,0.141,0.829,0.279,1.235,0.393c-0.113,0.674-0.211,1.137-0.323,1.57c-0.238,0.857-0.814,1.277-2.008,1.277h-4.167
		c-1.068,0-1.671-0.561-1.671-1.684v-2.863c-0.393,0.338-0.828,0.674-1.291,0.998C44.457,35.607,44.304,35.256,44.121,34.891
		 M41.735,27.494l1.234-0.701l1.783,2.105l-1.291,0.799C42.914,28.969,42.31,28.225,41.735,27.494 M47.208,35.789h3.467v-1.346
		h-3.467V35.789z M47.433,33.361h3.861c-0.351-0.422-0.646-0.898-0.94-1.432h-1.91C48.134,32.449,47.798,32.912,47.433,33.361
		 M48.134,30.75h2.471v-1.516h-2.471V30.75z"/>
	<path fill="#5E5C5C" d="M61.049,27.451h12.114v1.391h-8.52l-0.253,1.77h7.37l-0.436,7.086h2.273v1.391H60.63v-1.391h9.136
		l0.112-1.908H62.13l0.941-6.947h-2.022V27.451z M64.194,31.945l-0.352,2.496h6.121l0.168-2.496H64.194z"/>
	<path fill="#5E5C5C" d="M79.593,31.27h6.358v1.305h-2.793c-0.619,1.588-1.193,2.977-1.783,4.211
		c0.814-0.041,1.866-0.111,2.85-0.195c-0.338-0.857-0.646-1.629-0.97-2.4l1.194-0.42c0.505,1.121,1.081,2.525,1.601,3.818
		c1.024-1.531,1.333-3.131,1.431-6.375c0-0.182,0.014-0.363,0.014-0.545h-1.516v-1.334h1.559c0.029-0.842,0.029-1.715,0.043-2.695
		h1.402c-0.013,0.842-0.028,1.768-0.056,2.695h3.48c-0.042,3.018-0.113,6.217-0.183,8.098c-0.07,1.389-0.645,2.021-1.852,2.076
		c-0.492,0.029-1.264,0.043-1.896,0.043c-0.084-0.449-0.225-1.053-0.351-1.514c0.548,0.027,1.067,0.055,1.629,0.055
		c0.688,0,0.982-0.324,1.024-1.066c0.083-1.588,0.167-4.184,0.167-6.357h-2.063c0,0.209-0.015,0.404-0.015,0.602
		c-0.154,4.309-0.645,6.037-2.694,8.646c-0.421-0.295-0.814-0.547-1.305-0.855c0.322-0.365,0.618-0.701,0.87-1.039l-0.828,0.365
		c-0.028-0.084-0.126-0.35-0.211-0.547c-1.291,0.098-2.315,0.197-3.339,0.293c-0.478,0.057-0.83,0.141-1.25,0.268l-0.548-1.277
		c0.268-0.223,0.506-0.561,0.675-0.926c0.478-1.025,1.011-2.414,1.375-3.623h-2.021V31.27z M80.21,27.607h5.264v1.318H80.21V27.607z
		"/>
	<path fill="#006AB4" d="M113.215,25.07L113.215,25.07c-16.878-2.977-34.604-4.503-55.8-4.503c-0.01,0-0.02,0-0.028,0
		c-0.011,0-0.021,0-0.031,0c-21.195,0-38.92,1.526-55.8,4.503h0.001c-0.134,0.025-0.234,0.143-0.234,0.283
		c0,0.158,0.129,0.287,0.288,0.287c0.013,0,0.027-0.002,0.041-0.002c18.332-1.953,36.271-2.834,55.705-2.842h0.031h0.028
		c19.434,0.008,37.374,0.889,55.706,2.842c0.013,0,0.026,0.002,0.041,0.002c0.158,0,0.287-0.129,0.287-0.287
		C113.449,25.213,113.348,25.096,113.215,25.07"/>
	<path fill="#F4A000" d="M72.905,0.083c-4.655,0-8.429,3.773-8.429,8.428c0,4.656,3.773,8.429,8.429,8.429
		c4.655,0,8.428-3.773,8.428-8.429C81.333,3.857,77.56,0.083,72.905,0.083 M72.905,13.322c-2.657,0-4.811-2.153-4.811-4.811
		c0-2.656,2.153-4.81,4.811-4.81c2.656,0,4.81,2.153,4.81,4.81C77.715,11.169,75.562,13.322,72.905,13.322"/>
	<path fill="#009B6E" d="M49.924,0.249h-6.036c-0.005,0-0.116,0.001-0.164,0.001c-1.513,0.017-3.039,0.448-4.402,1.333
		c-3.827,2.486-4.914,7.604-2.429,11.43c1.592,2.452,4.265,3.78,6.986,3.763c0.003,0,6.045,0.001,6.045,0.001v-3.004h-5.431h-0.009
		v-0.003c-2.21-0.077-4.075-1.514-4.781-3.501h10.221V6.756H39.694c0.429-1.221,1.292-2.236,2.407-2.859
		c0.358-0.201,0.744-0.361,1.148-0.474c0.395-0.11,0.809-0.176,1.235-0.191c0,0,0.187-0.003,0.188-0.003h5.251V0.249z"/>
	<rect x="14.062" y="0.249" fill="#E84729" width="3.511" height="16.527"/>
	<polygon fill="#F4A000" points="22.704,5.276 22.704,16.775 19.351,16.775 19.351,0.249 23.854,0.249 30.429,12.562 30.429,0.249 
		33.782,0.249 33.782,16.775 28.832,16.775 	"/>
	<path fill-rule="evenodd" clip-rule="evenodd" fill="#006AB4" d="M0.679,0.25h3.56v10.702c0,1.257,0.686,2.064,1.598,2.426
		c0.343,0.135,0.683,0.174,1.136,0.172c1.629-0.001,5.314,0.001,5.313,0.001v3.222H7.012c-0.572,0-1.138,0.017-1.676-0.047
		c-1.927-0.228-3.366-1.388-4.099-2.907c-0.431-0.893-0.542-2.108-0.556-3.414C0.669,9.391,0.679,0.25,0.679,0.25"/>
	<rect x="51.701" y="0.249" fill="#006AB4" width="3.511" height="16.527"/>
	<polygon fill="#006AB4" points="55.54,8.409 61.872,0.249 66.497,0.249 59.664,8.409 66.169,16.775 61.533,16.775 	"/>
	<polygon fill="#E84729" points="86.464,5.276 86.464,16.775 83.111,16.775 83.111,0.249 87.614,0.249 94.188,12.562 94.188,0.249 
		97.542,0.249 97.542,16.775 92.592,16.775 	"/>
	<path fill="#006AB4" d="M108.355,3.224c0.068,0,0.878,0.004,0.878,0.004h4.863V0.248h-6.017c-0.028,0-0.572,0.003-0.799,0.011
		c-1.449,0.047-2.904,0.478-4.209,1.326c-3.816,2.477-4.9,7.579-2.422,11.395c1.391,2.139,3.605,3.455,5.955,3.729
		c0.456,0.091,2.28,0.064,2.85,0.064h4.644V6.755h-6.986v3.51h3.475v3.507h-1.352h-0.689c0,0-0.208,0.005-0.378,0
		c-0.25-0.009-0.633-0.067-0.936-0.132c-1.317-0.286-2.45-1.064-3.196-2.134c-0.597-0.854-0.947-1.892-0.947-3.014
		c0-1.121,0.35-2.16,0.947-3.013C104.987,4.116,106.567,3.224,108.355,3.224"/>
</g>
<g id="图层_2">
	<g>
		<path fill="#A4A4A4" d="M149.231,39.26h-0.916l-0.022-15.244h0.917L149.231,39.26z"/>
		<path fill="#A4A4A4" d="M153.202,15.169c0.465-0.016,0.904-0.118,1.319-0.31c0.414-0.191,0.774-0.44,1.08-0.75
			c0.305-0.309,0.545-0.662,0.72-1.059c0.174-0.397,0.262-0.824,0.262-1.279c0-0.441-0.088-0.857-0.262-1.247
			c-0.175-0.39-0.415-0.735-0.72-1.037c-0.306-0.302-0.666-0.544-1.08-0.728c-0.415-0.184-0.854-0.291-1.319-0.32h-3.905v6.729
			H153.202z M152.809,1.733h-3.512v5.78h3.905c0.436-0.015,0.84-0.1,1.211-0.255c0.37-0.154,0.693-0.36,0.971-0.617
			c0.275-0.257,0.494-0.563,0.653-0.915c0.16-0.354,0.24-0.729,0.24-1.125c0-0.368-0.08-0.721-0.24-1.06
			c-0.159-0.338-0.378-0.64-0.653-0.904c-0.277-0.265-0.601-0.475-0.971-0.629c-0.371-0.154-0.775-0.247-1.211-0.275H152.809z
			 M152.831,16.095h-4.429L148.38,0.851h4.822c0.552,0.015,1.072,0.125,1.56,0.331c0.487,0.206,0.909,0.478,1.265,0.816
			c0.356,0.338,0.641,0.731,0.852,1.18c0.211,0.448,0.315,0.923,0.315,1.423c0,0.75-0.196,1.423-0.589,2.018
			c-0.393,0.596-0.916,1.063-1.57,1.401c0.756,0.323,1.355,0.823,1.799,1.5c0.444,0.677,0.666,1.427,0.666,2.251
			c0,0.573-0.109,1.117-0.328,1.632c-0.218,0.516-0.52,0.967-0.904,1.357c-0.385,0.39-0.84,0.698-1.363,0.927
			c-0.523,0.228-1.091,0.349-1.701,0.363L152.831,16.095z"/>
		<path fill="#A4A4A4" d="M166.923,8.44h-6.653v6.729h7.788l0.021,0.926h-8.704l-0.022-15.244h8.705v0.883h-7.788v5.78h6.653V8.44z"
			/>
		<path fill="#A4A4A4" d="M183.021,0.851l-6.172,8.339l0.021,6.905h-0.938l-0.022-6.905l-6.172-8.339h1.242l5.367,7.457l5.453-7.457
			H183.021z"/>
		<path fill="#A4A4A4" d="M196.066,14.153c-0.625,0.691-1.342,1.221-2.149,1.589c-0.807,0.368-1.676,0.551-2.606,0.551
			c-0.916,0-1.788-0.199-2.617-0.595c-0.829-0.397-1.556-0.945-2.181-1.644c-0.627-0.698-1.124-1.526-1.495-2.482
			c-0.371-0.957-0.556-1.985-0.556-3.088c0-1.074,0.178-2.078,0.533-3.012c0.357-0.934,0.848-1.75,1.473-2.449
			c0.625-0.698,1.353-1.25,2.182-1.654c0.828-0.404,1.717-0.607,2.661-0.607c0.976,0,1.88,0.203,2.716,0.607
			s1.561,0.953,2.171,1.644c0.61,0.691,1.091,1.508,1.44,2.448c0.349,0.941,0.522,1.949,0.522,3.023
			c0,1.147-0.182,2.202-0.545,3.166C197.251,12.613,196.735,13.447,196.066,14.153z M195.39,3.521
			c-0.509-0.574-1.116-1.019-1.822-1.335c-0.704-0.316-1.457-0.475-2.257-0.475c-0.814,0-1.581,0.177-2.302,0.529
			c-0.72,0.354-1.349,0.835-1.887,1.445c-0.537,0.611-0.959,1.328-1.265,2.151s-0.458,1.706-0.458,2.648
			c0,0.956,0.152,1.849,0.458,2.68c0.306,0.832,0.724,1.556,1.254,2.174c0.53,0.617,1.157,1.106,1.876,1.467
			c0.721,0.36,1.494,0.541,2.323,0.541c0.844,0,1.632-0.181,2.367-0.541c0.734-0.361,1.366-0.85,1.897-1.467
			c0.531-0.618,0.949-1.342,1.254-2.174c0.307-0.831,0.459-1.724,0.459-2.68c0-1.001-0.168-1.924-0.502-2.769
			C196.451,4.87,195.986,4.138,195.39,3.521z"/>
		<path fill="#A4A4A4" d="M200.8,0.851l7.81,13.392V0.851h0.917l0.021,15.244h-0.916L200.8,2.638l0.021,13.457h-0.894l-0.022-15.244
			H200.8z"/>
		<path fill="#A4A4A4" d="M211.401,0.851h5.563c0.728,0.015,1.411,0.221,2.051,0.618c0.641,0.396,1.196,0.937,1.669,1.621
			c0.472,0.684,0.847,1.486,1.123,2.404c0.276,0.919,0.415,1.901,0.415,2.946s-0.135,2.026-0.404,2.945
			c-0.269,0.919-0.64,1.721-1.112,2.405c-0.472,0.684-1.025,1.228-1.658,1.633c-0.632,0.404-1.312,0.613-2.04,0.628l0.022,0.044
			h-5.606L211.401,0.851z M212.317,1.777v13.392h4.689v-0.044c0.598-0.015,1.157-0.202,1.68-0.563
			c0.524-0.36,0.979-0.842,1.364-1.445c0.386-0.604,0.69-1.306,0.916-2.107c0.226-0.801,0.339-1.658,0.339-2.57
			c0-0.897-0.113-1.75-0.339-2.559c-0.226-0.809-0.534-1.515-0.927-2.118c-0.393-0.603-0.852-1.081-1.374-1.435
			c-0.524-0.353-1.091-0.536-1.702-0.551H212.317z"/>
		<path fill="#A4A4A4" d="M161.774,24.016h0.938l0.021,15.244h-0.938l-0.021-13.457l-4.624,8.052h-0.567l-4.69-8.052l0.022,13.457
			h-0.917l-0.021-15.244h0.916l4.995,8.515L161.774,24.016z"/>
		<path fill="#A4A4A4" d="M170.063,24.016h0.764l5.584,15.244h-0.959l-2.356-6.331h-5.301l-2.312,6.331h-0.961L170.063,24.016z
			 M172.769,32.002l-2.334-6.354l-2.313,6.354H172.769z"/>
		<path fill="#A4A4A4" d="M188.955,37.385c-0.626,0.661-1.335,1.173-2.127,1.533c-0.793,0.36-1.647,0.54-2.563,0.54
			c-0.945,0-1.836-0.201-2.672-0.606c-0.836-0.404-1.566-0.96-2.192-1.665c-0.626-0.707-1.12-1.53-1.483-2.471
			c-0.363-0.942-0.545-1.942-0.545-3.001c0-1.073,0.182-2.081,0.545-3.022s0.857-1.765,1.483-2.471s1.356-1.265,2.192-1.678
			c0.836-0.411,1.727-0.617,2.672-0.617c0.916,0,1.771,0.188,2.563,0.563c0.792,0.375,1.501,0.895,2.127,1.556l-0.61,0.64
			c-0.539-0.559-1.156-1-1.855-1.323c-0.697-0.323-1.439-0.485-2.225-0.485c-0.829,0-1.604,0.176-2.323,0.529
			c-0.72,0.353-1.353,0.838-1.897,1.456c-0.546,0.617-0.975,1.342-1.287,2.173s-0.469,1.725-0.469,2.681
			c0,0.94,0.156,1.827,0.469,2.658s0.741,1.559,1.287,2.185c0.545,0.625,1.178,1.117,1.897,1.479
			c0.72,0.359,1.494,0.539,2.323,0.539c0.727,0,1.414-0.143,2.062-0.43s1.218-0.665,1.712-1.136v-4.368h-4.166v-0.883h5.083v5.56
			V37.385z"/>
		<path fill="#A4A4A4" d="M192.009,39.26h-0.916l-0.021-15.244h0.916L192.009,39.26z"/>
		<path fill="#A4A4A4" d="M194.933,24.016l7.809,13.392V24.016h0.916l0.022,15.244h-0.916l-7.831-13.457l0.021,13.457h-0.895
			l-0.021-15.244H194.933z"/>
		<path fill="#A4A4A4" d="M210.966,24.016h0.763l5.585,15.244h-0.96l-2.356-6.331h-5.301l-2.313,6.331h-0.959L210.966,24.016z
			 M213.671,32.002l-2.334-6.354l-2.313,6.354H213.671z"/>
		<path fill="#A4A4A4" d="M224.489,24.897l0.023,14.362h-0.917l-0.022-14.362h-4.93v-0.882h10.755v0.882H224.489z"/>
		<path fill="#A4A4A4" d="M232.277,39.26h-0.917l-0.021-15.244h0.916L232.277,39.26z"/>
		<path fill="#A4A4A4" d="M245.519,37.318c-0.625,0.691-1.342,1.221-2.148,1.589c-0.808,0.367-1.676,0.551-2.607,0.551
			c-0.916,0-1.789-0.198-2.617-0.596c-0.828-0.396-1.557-0.944-2.182-1.644c-0.625-0.698-1.123-1.525-1.494-2.481
			s-0.557-1.986-0.557-3.088c0-1.074,0.179-2.078,0.535-3.013c0.356-0.934,0.848-1.749,1.473-2.448s1.352-1.25,2.182-1.654
			c0.828-0.405,1.715-0.607,2.66-0.607c0.975,0,1.881,0.202,2.717,0.607c0.836,0.404,1.559,0.951,2.17,1.644
			c0.611,0.69,1.091,1.507,1.439,2.448c0.35,0.941,0.524,1.949,0.524,3.023c0,1.146-0.183,2.202-0.546,3.165
			C246.704,35.778,246.188,36.612,245.519,37.318z M244.843,26.685c-0.51-0.574-1.117-1.018-1.821-1.334
			c-0.706-0.316-1.459-0.475-2.259-0.475c-0.814,0-1.581,0.176-2.301,0.529c-0.72,0.353-1.349,0.835-1.887,1.445
			c-0.539,0.609-0.96,1.326-1.266,2.15c-0.305,0.823-0.457,1.707-0.457,2.648c0,0.955,0.152,1.849,0.457,2.68
			c0.306,0.831,0.724,1.555,1.254,2.173c0.531,0.618,1.156,1.107,1.877,1.468c0.72,0.359,1.494,0.54,2.322,0.54
			c0.844,0,1.633-0.181,2.367-0.54c0.734-0.36,1.367-0.85,1.898-1.468s0.949-1.342,1.254-2.173c0.306-0.831,0.458-1.725,0.458-2.68
			c0-1.001-0.167-1.924-0.502-2.77C245.904,28.034,245.438,27.303,244.843,26.685z"/>
		<path fill="#A4A4A4" d="M250.253,24.016l7.809,13.392V24.016h0.917L259,39.26h-0.916l-7.831-13.457l0.021,13.457h-0.895
			l-0.021-15.244H250.253z"/>
		<path fill="#A4A4A4" d="M1984.688-42.5 M-1548.438-42.5"/>
		<path fill="#A4A4A4" d="M2013.563,95 M-1519.563,95"/>
	</g>
</g>
</svg>
