<?xml version="1.0" encoding="utf-8"?>
<!-- Generator: Adobe Illustrator 16.0.0, SVG Export Plug-In . SVG Version: 6.00 Build 0)  -->
<!DOCTYPE svg PUBLIC "-//W3C//DTD SVG 1.1//EN" "http://www.w3.org/Graphics/SVG/1.1/DTD/svg11.dtd">
<svg version="1.1" id="图层_1" xmlns="http://www.w3.org/2000/svg" xmlns:xlink="http://www.w3.org/1999/xlink" x="0px" y="0px"
	 width="34px" height="34px" viewBox="0 0 34 34" enable-background="new 0 0 34 34" xml:space="preserve">
<g>
	<path fill-rule="evenodd" clip-rule="evenodd" fill="#FFFFFF" d="M16.994,20.896c-2.797,0-5.428-1.09-7.405-3.068
		c-1.978-1.978-3.067-4.607-3.067-7.404c0-2.798,1.09-5.427,3.067-7.405c1.978-1.978,4.608-3.067,7.405-3.067
		s5.427,1.09,7.405,3.067c1.978,1.978,3.067,4.607,3.067,7.405c0,1.777-0.454,3.534-1.313,5.079l-1.501-0.833
		c0.717-1.291,1.097-2.759,1.097-4.245c0-4.828-3.928-8.756-8.756-8.756s-8.756,3.928-8.756,8.756c0,4.828,3.928,8.755,8.756,8.755
		c0.157,0,0.316-0.004,0.474-0.012l0.091,1.713C17.371,20.891,17.182,20.896,16.994,20.896L16.994,20.896z M1.699,33.299
		l-1.681-0.35c0.486-2.34,1.437-4.518,2.824-6.475c1.364-1.922,3.073-3.523,5.08-4.758l0.899,1.463
		C5.165,25.43,2.569,29.117,1.699,33.299L1.699,33.299z"/>
	<path fill-rule="evenodd" clip-rule="evenodd" fill="#FFFFFF" d="M32.302,33.361c-1.474-7.234-7.911-12.486-15.308-12.486
		c-0.163,0-0.328,0.002-0.49,0.008l-0.053-1.717c0.181-0.006,0.361-0.008,0.543-0.008c2.05,0,4.057,0.354,5.965,1.053
		c1.844,0.676,3.55,1.656,5.07,2.912c3.054,2.521,5.169,6.037,5.955,9.896L32.302,33.361L32.302,33.361z"/>
	<path fill-rule="evenodd" clip-rule="evenodd" fill="#FFFFFF" d="M8.372,22.449 M7.514,22.449c0,0.473,0.385,0.857,0.858,0.857
		c0.475,0,0.858-0.385,0.858-0.857c0-0.475-0.384-0.859-0.858-0.859C7.898,21.59,7.514,21.975,7.514,22.449"/>
	<path fill-rule="evenodd" clip-rule="evenodd" fill="#FFFFFF" d="M25.378,15.14 M24.52,15.14c0,0.474,0.384,0.858,0.858,0.858
		c0.474,0,0.858-0.385,0.858-0.858c0-0.475-0.385-0.858-0.858-0.858C24.903,14.282,24.52,14.666,24.52,15.14"/>
	<path fill-rule="evenodd" clip-rule="evenodd" fill="#FFFFFF" d="M0.858,33.125 M0,33.125c0,0.307,0.164,0.59,0.43,0.742
		s0.593,0.152,0.858,0s0.43-0.436,0.43-0.742c0-0.475-0.385-0.859-0.859-0.859C0.385,32.266,0,32.65,0,33.125"/>
	<path fill-rule="evenodd" clip-rule="evenodd" fill="#FFFFFF" d="M33.143,33.189 M32.284,33.189c0,0.475,0.385,0.859,0.858,0.859
		c0.475,0,0.858-0.385,0.858-0.859c0-0.473-0.384-0.857-0.858-0.857C32.669,32.332,32.284,32.717,32.284,33.189"/>
</g>
</svg>
