<?xml version="1.0" encoding="utf-8"?>
<!-- Generator: Adobe Illustrator 16.0.0, SVG Export Plug-In . SVG Version: 6.00 Build 0)  -->
<!DOCTYPE svg PUBLIC "-//W3C//DTD SVG 1.1//EN" "http://www.w3.org/Graphics/SVG/1.1/DTD/svg11.dtd">
<svg version="1.1" id="图层_3" xmlns="http://www.w3.org/2000/svg" xmlns:xlink="http://www.w3.org/1999/xlink" x="0px" y="0px"
	 width="81px" height="78px" viewBox="0 0 81 78" enable-background="new 0 0 81 78" xml:space="preserve">
<g>
	<path fill-rule="evenodd" clip-rule="evenodd" fill="#F5F5F5" d="M63.738,43.372l-4.483,2.625l-9.374-16.773l4.306-2.507V10.902
		L40.532,3l-13.578,7.905v15.811l4.149,2.425l-9.55,16.658l-4.146-2.424L3.751,51.278v15.814L17.333,75l13.582-7.907v-4.852h19.173
		v4.852L63.668,75l13.581-7.907V51.284L63.738,43.372L63.738,43.372z M9.808,54.835l7.524-4.359l7.524,4.359v8.775l-7.524,4.359
		L9.808,63.61V54.835L9.808,54.835z M63.738,67.97l-7.524-4.359v-8.775l7.524-4.359l7.524,4.359v8.775L63.738,67.97L63.738,67.97z
		 M26.765,48.857L36.315,32.2l4.146,2.423l4.064-2.351l9.378,16.785l-3.816,2.225v4.852H30.915v-4.852L26.765,48.857L26.765,48.857z
		 M48.061,23.17l-7.531,4.419l-7.519-4.356v-8.774l7.524-4.36l7.524,4.36L48.061,23.17L48.061,23.17L48.061,23.17z"/>
</g>
</svg>
