<?xml version="1.0" encoding="utf-8"?>
<!-- Generator: Adobe Illustrator 16.0.0, SVG Export Plug-In . SVG Version: 6.00 Build 0)  -->
<!DOCTYPE svg PUBLIC "-//W3C//DTD SVG 1.1//EN" "http://www.w3.org/Graphics/SVG/1.1/DTD/svg11.dtd">
<svg version="1.1" id="图层_3" xmlns="http://www.w3.org/2000/svg" xmlns:xlink="http://www.w3.org/1999/xlink" x="0px" y="0px"
	 width="81px" height="78px" viewBox="0 0 81 78" enable-background="new 0 0 81 78" xml:space="preserve">
<g>
	<path fill-rule="evenodd" clip-rule="evenodd" fill="#F5F5F5" d="M73.323,2.714l-32.822,9.288L7.679,2.714
		C4.594,1.841,2,3.721,2,6.946v46.985c0,3.166,2.427,6.869,5.421,8.14l30.621,12.997c0.88,0.374,1.717,0.496,2.459,0.399
		c0.741,0.097,1.579-0.025,2.459-0.399l30.621-12.997c2.993-1.271,5.421-4.974,5.421-8.14V6.946
		C79.002,3.721,76.408,1.841,73.323,2.714L73.323,2.714z M29.694,45.797l-6.963-3.625l-6.963,3.625l1.329-7.679l-5.633-5.438
		l7.785-1.121l3.481-6.986l3.481,6.986l7.785,1.121l-5.634,5.438L29.694,45.797L29.694,45.797z M68.019,50.817l-17.688,5.899
		c-1.551,0.518-3.23-0.309-3.752-1.844c-0.522-1.535,0.311-3.198,1.861-3.715l17.688-5.9c1.551-0.518,3.23,0.309,3.752,1.844
		C70.402,48.637,69.569,50.301,68.019,50.817L68.019,50.817z M68.019,39.084l-17.688,5.9c-1.551,0.518-3.23-0.309-3.752-1.844
		c-0.522-1.535,0.311-3.199,1.861-3.716l17.688-5.899c1.551-0.518,3.23,0.309,3.752,1.844
		C70.402,36.904,69.569,38.568,68.019,39.084L68.019,39.084z M68.019,27.352l-17.688,5.9c-1.551,0.517-3.23-0.309-3.752-1.844
		c-0.522-1.535,0.311-3.199,1.861-3.716l17.688-5.9c1.551-0.517,3.23,0.308,3.752,1.843C70.402,25.171,69.569,26.835,68.019,27.352
		L68.019,27.352z"/>
</g>
</svg>
