<?xml version="1.0" encoding="utf-8"?>
<!-- Generator: Adobe Illustrator 16.0.0, SVG Export Plug-In . SVG Version: 6.00 Build 0)  -->
<!DOCTYPE svg PUBLIC "-//W3C//DTD SVG 1.1//EN" "http://www.w3.org/Graphics/SVG/1.1/DTD/svg11.dtd">
<svg version="1.1" id="图层_3" xmlns="http://www.w3.org/2000/svg" xmlns:xlink="http://www.w3.org/1999/xlink" x="0px" y="0px"
	 width="81px" height="78px" viewBox="0 0 81 78" enable-background="new 0 0 81 78" xml:space="preserve">
<g>
	<path fill-rule="evenodd" clip-rule="evenodd" fill="#F5F5F5" d="M70.704,28.688C66.463,15.606,54.779,6.166,41.03,6.166
		c-13.696,0-25.342,9.373-29.623,22.382C5.602,28.982,1.002,34.081,1.002,40.302v8.594c0,6.504,5.027,11.796,11.206,11.796h5.999
		c1.728,0,3.128-1.385,3.128-3.094v-26c0-1.708-1.4-3.094-3.128-3.094h-0.146c3.918-9.5,12.73-16.15,22.969-16.15
		c10.241,0,19.056,6.65,22.972,16.15h-1.207c-1.728,0-3.128,1.385-3.128,3.094v25.998c0,0.786,0.307,1.495,0.794,2.042
		c-4.677,5.351-11.561,8.405-20.024,8.405c-1.151,0-2.085,0.923-2.085,2.063s0.934,2.063,2.085,2.063
		c10.512,0,19.056-4.243,24.485-11.479h3.87c6.179,0,11.206-5.29,11.206-11.796V40.3C80,34.481,75.976,29.646,70.704,28.688
		L70.704,28.688z M15.079,41.553v12.95h-2.871c-2.729,0-4.95-2.516-4.95-5.607v-8.594c0-0.486,0.07-0.95,0.175-1.4
		c0.025-0.107,0.057-0.212,0.088-0.316c0.114-0.391,0.254-0.766,0.438-1.112c0.019-0.038,0.033-0.077,0.055-0.114
		c0.46-0.839,1.111-1.52,1.885-1.986c0.323-0.193,0.668-0.35,1.028-0.464c0.037-0.01,0.07-0.026,0.108-0.036
		c0.375-0.111,0.767-0.178,1.174-0.178h2.871V41.553L15.079,41.553z M73.744,48.894c0,3.092-2.221,5.607-4.95,5.607h-2.869V34.692
		h2.871c1.358,0,2.59,0.625,3.487,1.633c0.958,1.107,1.478,2.52,1.464,3.977v8.592H73.744L73.744,48.894z"/>
</g>
</svg>
