<?xml version="1.0" encoding="utf-8"?>
<!-- Generator: Adobe Illustrator 16.0.0, SVG Export Plug-In . SVG Version: 6.00 Build 0)  -->
<!DOCTYPE svg PUBLIC "-//W3C//DTD SVG 1.1//EN" "http://www.w3.org/Graphics/SVG/1.1/DTD/svg11.dtd">
<svg version="1.1" id="图层_1" xmlns="http://www.w3.org/2000/svg" xmlns:xlink="http://www.w3.org/1999/xlink" x="0px" y="0px"
	 width="23px" height="27px" viewBox="0 0 23 27" enable-background="new 0 0 23 27" xml:space="preserve">
<g>
	<path fill-rule="evenodd" clip-rule="evenodd" fill="#4284D9" d="M18.989,5.286H4.01C1.799,5.286,0,7.083,0,9.291v13.705
		C0,25.203,1.799,27,4.01,27h14.979C21.201,27,23,25.203,23,22.995V9.291C23,7.083,21.201,5.286,18.989,5.286L18.989,5.286z
		 M21.113,22.995c0,1.169-0.952,2.12-2.124,2.12H4.01c-1.171,0-2.124-0.951-2.124-2.12V9.291c0-1.169,0.953-2.121,2.124-2.121h1.563
		c0,0.004-0.001,0.008-0.001,0.012V8.42c0,0.521,0.422,0.942,0.942,0.942c0.521,0,0.943-0.421,0.943-0.942V7.182
		c0-0.004-0.001-0.008-0.001-0.012h8.086c0,0.004-0.002,0.008-0.002,0.012V8.42c0,0.521,0.422,0.942,0.943,0.942
		s0.943-0.421,0.943-0.942V7.182c0-0.004-0.001-0.008-0.001-0.012h1.563c1.172,0,2.124,0.951,2.124,2.121V22.995L21.113,22.995
		L21.113,22.995z"/>
	<path fill-rule="evenodd" clip-rule="evenodd" fill="#4284D9" d="M6.103,4.401c0.464,0.23,1.027,0.041,1.263-0.419
		c0.044-0.085,1.107-2.098,4.147-2.098c3.035,0,4.075,2.006,4.114,2.083c0.161,0.339,0.499,0.538,0.852,0.538
		c0.136,0,0.274-0.029,0.405-0.092c0.47-0.224,0.67-0.785,0.446-1.255C17.269,3.029,15.776,0,11.513,0
		c-4.258,0-5.777,3.022-5.84,3.151C5.446,3.615,5.639,4.171,6.103,4.401L6.103,4.401z"/>
	<path fill-rule="evenodd" clip-rule="evenodd" fill="#4284D9" d="M7.819,11.203c-0.521,0-0.943,0.421-0.943,0.942v0.918
		c0,0.521,0.422,0.942,0.943,0.942c0.521,0,0.942-0.422,0.942-0.942v-0.918C8.762,11.625,8.34,11.203,7.819,11.203L7.819,11.203z"/>
	<path fill-rule="evenodd" clip-rule="evenodd" fill="#4284D9" d="M15.181,11.203c-0.521,0-0.943,0.421-0.943,0.942v0.918
		c0,0.521,0.422,0.942,0.943,0.942c0.521,0,0.943-0.422,0.943-0.942v-0.918C16.124,11.625,15.701,11.203,15.181,11.203
		L15.181,11.203z"/>
	<path fill-rule="evenodd" clip-rule="evenodd" fill="#4284D9" d="M13.819,15.457c-0.439-0.28-1.022-0.153-1.304,0.285
		c-0.004,0.006-0.404,0.586-1.025,0.586c-0.604,0-0.979-0.545-1.005-0.584c-0.277-0.436-0.854-0.567-1.294-0.294
		c-0.442,0.274-0.578,0.854-0.303,1.297c0.338,0.544,1.268,1.465,2.602,1.465c1.327,0,2.268-0.914,2.614-1.454
		C14.385,16.32,14.258,15.737,13.819,15.457L13.819,15.457z"/>
</g>
</svg>
