<?xml version="1.0" encoding="utf-8"?>
<!-- Generator: Adobe Illustrator 16.0.0, SVG Export Plug-In . SVG Version: 6.00 Build 0)  -->
<!DOCTYPE svg PUBLIC "-//W3C//DTD SVG 1.1//EN" "http://www.w3.org/Graphics/SVG/1.1/DTD/svg11.dtd">
<svg version="1.1" id="图层_3" xmlns="http://www.w3.org/2000/svg" xmlns:xlink="http://www.w3.org/1999/xlink" x="0px" y="0px"
	 width="81px" height="78px" viewBox="0 0 81 78" enable-background="new 0 0 81 78" xml:space="preserve">
<g>
	<path fill-rule="evenodd" clip-rule="evenodd" fill="#2b2b2b" d="M59.25,29.812H21.751c-11.184,0-20.25,10.284-20.25,22.969
		s9.066,22.969,20.25,22.969H59.25c11.184,0,20.249-10.283,20.249-22.969S70.434,29.812,59.25,29.812L59.25,29.812z M28.501,55.844
		h-4.5v4.594c0,1.691-1.344,3.063-3,3.063c-1.657,0-3-1.371-3-3.063v-4.594h-4.5c-1.657,0-3-1.371-3-3.063s1.343-3.063,3-3.063h4.5
		v-4.594c0-1.691,1.343-3.063,3-3.063c1.656,0,3,1.371,3,3.063v4.594h4.5c1.656,0,3,1.371,3,3.063S30.157,55.844,28.501,55.844
		L28.501,55.844z M52.5,55.844c-1.657,0-3-1.371-3-3.063s1.343-3.063,3-3.063s3,1.371,3,3.063S54.157,55.844,52.5,55.844
		L52.5,55.844z M60,63.5c-1.657,0-3-1.371-3-3.063s1.343-3.063,3-3.063s3,1.371,3,3.063S61.657,63.5,60,63.5L60,63.5z M60,48.188
		c-1.657,0-3-1.371-3-3.063s1.343-3.063,3-3.063s3,1.371,3,3.063S61.657,48.188,60,48.188L60,48.188z M67.5,55.844
		c-1.657,0-3-1.371-3-3.063s1.343-3.063,3-3.063s3,1.371,3,3.063S69.157,55.844,67.5,55.844L67.5,55.844z M61.5,6.843
		c0-4.27,0-4.594,0-4.594h-6c0,0,0,0.842,0,3.441c0,12.414-17.999-1.628-17.999,14.935c0,4.334,0,4.594,0,4.594s3.057,0,6,0
		C42.313,8.293,61.5,26.807,61.5,6.843L61.5,6.843z"/>
</g>
</svg>
